<svg width="30" height="19" viewBox="0 0 30 19" fill="none" xmlns="http://www.w3.org/2000/svg">
<path d="M18.9687 14.0713C19.7566 14.0713 20.5368 13.9161 21.2648 13.6146C21.9927 13.3131 22.6542 12.8711 23.2113 12.3139C23.7685 11.7568 24.2104 11.0954 24.512 10.3674C24.8135 9.63945 24.9687 8.85924 24.9687 8.0713C24.9687 7.28337 24.8135 6.50316 24.512 5.7752C24.2104 5.04725 23.7685 4.38581 23.2113 3.82866C22.6542 3.27151 21.9927 2.82956 21.2648 2.52803C20.5368 2.2265 19.7566 2.0713 18.9687 2.0713C17.3774 2.0713 15.8513 2.70344 14.726 3.82866C13.6008 4.95388 12.9687 6.48001 12.9687 8.0713C12.9687 9.6626 13.6008 11.1887 14.726 12.3139C15.8513 13.4392 17.3774 14.0713 18.9687 14.0713ZM25.2887 12.9773L28.8687 16.5573C28.9641 16.6496 29.0402 16.76 29.0925 16.8821C29.1449 17.0041 29.1724 17.1353 29.1734 17.2681C29.1745 17.4009 29.1491 17.5326 29.0987 17.6554C29.0483 17.7783 28.974 17.8899 28.8801 17.9837C28.7861 18.0775 28.6744 18.1517 28.5515 18.2019C28.4285 18.2521 28.2968 18.2773 28.1641 18.276C28.0313 18.2748 27.9001 18.2471 27.7781 18.1946C27.6562 18.1421 27.5459 18.0659 27.4537 17.9703L23.8737 14.3903C22.2661 15.6382 20.2435 16.2265 18.2174 16.0355C16.1914 15.8445 14.3143 14.8886 12.9682 13.3624C11.6222 11.8361 10.9084 9.85425 10.9721 7.82023C11.0358 5.78621 11.8723 3.85293 13.3113 2.41395C14.7503 0.974973 16.6836 0.138471 18.7176 0.0747298C20.7516 0.0109887 22.7335 0.724801 24.2597 2.07085C25.786 3.41691 26.7419 5.29402 26.9329 7.32006C27.1238 9.3461 26.5355 11.3688 25.2877 12.9763L25.2887 12.9773Z" fill="#181725"/>
<rect x="0.824142" y="0.0708008" width="8.85499" height="2.39923" rx="1.19961" fill="#181725"/>
<rect x="0.824142" y="7.50903" width="6.46414" height="2.39923" rx="1.19961" fill="#181725"/>
<rect x="0.824142" y="14.9475" width="8.85499" height="2.39923" rx="1.19961" fill="#181725"/>
</svg>
